# xmcd
#
# Track frame offsets: 
#        150
#        20163
#        39984
#        62337
#        84755
#        108819
#        132555
#        166995
#        192211
#
# Disc length: 2755 seconds
#
# Revision: 0
# Processed by: cddbd v1.5.2PL0 Copyright (c) Steve Scherf et al.
# Submitted via: ExactAudioCopy v0.95b4
#
DISCID=680ac109
DTITLE=Jony James Blues Band - What About Tomorrow
DYEAR=2006
DGENRE=Blues
TTITLE0=Strange and Funny Thing
TTITLE1=Still Love You
TTITLE2=Going Down This Road
TTITLE3=Tragic Magic
TTITLE4=You and Me (Like A Rose)
TTITLE5=You Make My World Go Around
TTITLE6=One Of Those Days
TTITLE7=What About Tomorrow
TTITLE8=This Old Heart
EXTD=
EXTT0=
EXTT1=
EXTT2=
EXTT3=
EXTT4=
EXTT5=
EXTT6=
EXTT7=
EXTT8=
PLAYORDER=
